<svg width="131" height="21" viewBox="0 0 131 21" fill="none" xmlns="http://www.w3.org/2000/svg">
<g clip-path="url(#clip0)">
<path d="M15.5866 7.6385C15.5866 8.07963 15.5131 8.52076 15.5131 8.96189H4.85244C5.14652 10.5794 6.24935 11.4616 7.79331 11.4616C8.96966 11.4616 9.92544 10.947 10.3666 10.1382H15.2925C14.2632 13.3732 11.3959 15.4318 7.79331 15.4318C3.30848 15.3583 0 12.1233 0 7.71203C0 3.37424 3.30848 0.139282 7.79331 0.139282C12.3517 0.139282 15.5866 3.44776 15.5866 7.6385ZM4.92596 6.16807H10.7342C10.293 4.77115 9.26374 3.96241 7.79331 3.96241C6.32287 3.96241 5.29357 4.77115 4.92596 6.16807Z" fill="#333333"/>
<path d="M48.0832 7.63845C48.0832 8.07958 48.0097 8.52071 48.0097 8.96184H37.349C37.6431 10.5793 38.7459 11.4616 40.2899 11.4616C41.4662 11.4616 42.422 10.9469 42.8631 10.1382H47.7891C46.7598 13.3731 43.8925 15.4318 40.2899 15.4318C35.8051 15.4318 32.4966 12.1968 32.4966 7.78549C32.4966 3.37419 35.8051 0.21275 40.2899 0.21275C44.9218 0.139228 48.0832 3.44771 48.0832 7.63845ZM37.4225 6.16801H43.2308C42.7896 4.7711 41.7603 3.96236 40.2899 3.96236C38.8195 3.96236 37.8637 4.7711 37.4225 6.16801Z" fill="#333333"/>
<path d="M58.8909 0.506836V4.99166H56.9793C55.2148 4.99166 54.4795 5.72688 54.4795 7.56493V14.8436H49.5536V0.580358H52.8621L53.5973 2.19784C54.6266 1.02149 55.8029 0.580358 57.5675 0.580358H58.8909V0.506836Z" fill="#333333"/>
<path d="M75.8009 0.580444L69.8456 14.2555C67.9341 18.5933 66.1696 20.2108 62.4935 20.2108H60.8025V15.9465H62.1259C64.0374 15.9465 64.5521 15.4318 65.2138 13.6673L59.332 0.580444H64.6991L67.64 8.44727L70.4338 0.580444H75.8009Z" fill="#333333"/>
<path d="M92.3433 7.78558C92.3433 12.2704 89.2554 15.4318 84.8441 15.4318C83.5207 15.4318 82.3443 15.0642 81.3886 14.4761V20.1372H76.5361V0.580448H79.9181L80.5063 1.68327C81.6827 0.65397 83.2266 0.0657959 84.9176 0.0657959C89.2554 0.139318 92.3433 3.30075 92.3433 7.78558ZM87.4174 7.78558C87.4174 5.87402 86.094 4.55062 84.1824 4.55062C82.2708 4.55062 80.9474 5.94754 80.9474 7.78558C80.9474 9.69715 82.2708 11.0205 84.1824 11.0205C86.0204 11.0205 87.4174 9.62363 87.4174 7.78558Z" fill="#333333"/>
<path d="M109.842 0.580448V14.8437H106.018L105.577 13.8144C104.401 14.7702 102.93 15.2848 101.239 15.2848C96.9017 15.2848 93.7402 12.1234 93.7402 7.63854C93.7402 3.22723 96.8281 0.0657959 101.239 0.0657959C102.93 0.0657959 104.401 0.65397 105.577 1.60975L106.092 0.506927L109.842 0.580448ZM105.136 7.78558C105.136 5.94754 103.813 4.55062 101.901 4.55062C100.063 4.55062 98.6662 5.94754 98.6662 7.78558C98.6662 9.62363 99.9896 11.0205 101.901 11.0205C103.813 11.0205 105.136 9.62363 105.136 7.78558Z" fill="#333333"/>
<path d="M127.854 0.580444L121.899 14.2555C119.988 18.5933 118.223 20.2108 114.547 20.2108H112.856V15.9465H114.179C116.091 15.9465 116.606 15.4318 117.267 13.6673L111.385 0.580444H116.753L119.767 8.44727L122.561 0.580444H127.854Z" fill="#333333"/>
</g>
<defs>
<clipPath id="clip0">
<rect width="130.06" height="20.0714" fill="white" transform="translate(0 0.139282)"/>
</clipPath>
</defs>
</svg>
