<svg width="412" height="411" viewBox="0 0 412 411" fill="none" xmlns="http://www.w3.org/2000/svg">
<ellipse cx="366.447" cy="84.5" rx="21.5888" ry="38.3354" transform="rotate(-133.688 366.447 84.5)" fill="url(#paint0_linear)"/>
<ellipse cx="297.44" cy="116.396" rx="65" ry="115.421" fill="url(#paint1_linear)"/>
<mask id="mask0" mask-type="alpha" maskUnits="userSpaceOnUse" x="232" y="0" width="131" height="232">
<ellipse cx="297.44" cy="116.396" rx="65" ry="115.421" fill="url(#paint2_linear)"/>
</mask>
<g mask="url(#mask0)">
<path d="M297.855 -6.68335C273.355 17.4833 233.755 92.7167 271.355 200.317" stroke="url(#paint3_linear)"/>
<path d="M299.213 -6.68335C323.713 17.4833 363.313 92.7167 325.713 200.317" stroke="url(#paint4_linear)"/>
<line x1="298.356" y1="-6.68335" x2="298.356" y2="193.181" stroke="url(#paint5_linear)"/>
</g>
<path d="M256.856 17.3167L257.913 29.4859L268.98 24.3167L258.97 31.3167L268.98 38.3167L257.913 33.1474L256.856 45.3167L255.799 33.1474L244.731 38.3167L254.742 31.3167L244.731 24.3167L255.799 29.4859L256.856 17.3167Z" fill="#3E464F"/>
<path d="M337.356 98.5906L338.413 110.76L349.48 105.591L339.47 112.591L349.48 119.591L338.413 114.421L337.356 126.591L336.299 114.421L325.231 119.591L335.242 112.591L325.231 105.591L336.299 110.76L337.356 98.5906Z" fill="#3E464F"/>
<path d="M383.726 67.7151L384.529 76.9546L392.931 73.0298L385.331 78.3446L392.931 83.6594L384.529 79.7346L383.726 88.9741L382.923 79.7346L374.521 83.6594L382.121 78.3446L374.521 73.0298L382.923 76.9546L383.726 67.7151Z" fill="#3E464F"/>
<path d="M278.606 9.0437L279.191 15.7802L285.317 12.9187L279.776 16.7937L285.317 20.6687L279.191 17.8072L278.606 24.5437L278.02 17.8072L271.894 20.6687L277.435 16.7937L271.894 12.9187L278.02 15.7802L278.606 9.0437Z" fill="#3E464F"/>
<path d="M209.139 264.531C207.312 258.404 211.902 252.246 218.295 252.246H377.538C383.636 252.246 388.173 257.881 386.873 263.838L361.541 379.929C360.584 384.317 356.698 387.446 352.206 387.446H252.898C248.672 387.446 244.948 384.671 243.741 380.621L209.139 264.531Z" fill="url(#paint6_linear)"/>
<path d="M183.844 181.721C183.844 176.444 188.121 172.166 193.398 172.166H401.482C406.759 172.166 411.037 176.444 411.037 181.721V256.734C411.037 262.011 406.759 266.289 401.482 266.289H193.398C188.121 266.289 183.844 262.011 183.844 256.734V181.721Z" fill="#B2EEFC"/>
<path d="M326.197 217.684C322.012 218.201 315.581 220.112 313.865 224.562C313.137 226.676 312.991 228.946 313.443 231.136C313.894 233.325 314.927 235.353 316.432 237.006C316.935 237.592 317.614 238.001 318.368 238.172C319.121 238.343 319.91 238.267 320.617 237.954L321.524 237.494C322.164 237.176 322.693 236.673 323.044 236.051C323.395 235.429 323.552 234.716 323.493 234.003C323.435 233.291 323.164 232.613 322.716 232.057C322.268 231.5 321.663 231.091 320.98 230.882C320.143 228.901 320.98 227.366 323.603 226.543C326.058 225.804 329.099 225.26 331.094 227.296C333.022 229.441 334.243 232.128 334.59 234.991C334.937 237.854 334.393 240.754 333.033 243.298C327.899 252.603 310.587 254.932 302.747 248.152C299.468 245.362 296.036 250.259 298.031 253.3C300.208 256.606 305.941 258.615 309.652 259.55C315.093 260.945 320.115 259.647 325.332 258.029C335.6 254.862 343.468 246.632 342.952 235.499C342.659 226.892 335.795 216.485 326.197 217.684Z" fill="url(#paint7_linear)"/>
<path d="M78.3947 352.223L87.0021 396.125C87.0021 404.133 91.6755 410.564 97.2836 410.522L114.987 410.355C120.567 410.355 125.087 403.784 125.017 395.79L130.737 351.735L78.3947 352.223Z" fill="url(#paint8_linear)"/>
<path d="M199.848 351.107L208.455 395.023C208.455 403.017 213.129 409.462 218.737 409.406L236.44 409.239C242.02 409.239 246.54 402.668 246.47 394.675L252.19 350.633L199.848 351.107Z" fill="url(#paint9_linear)"/>
<path d="M54.0652 127.746C54.0652 127.746 63.1247 157.572 61.4194 179.695C39.4543 198.917 25.109 224.165 22.3696 252.085C19.7857 252.259 17.0592 252.191 14.3061 251.738C14.3061 251.738 5.93585 243.883 0.355652 252.351L0.843919 305.461C6.42412 313.831 14.7944 305.824 14.7944 305.824C21.3368 304.624 27.7622 305.611 32.4755 306.859C54.0193 350.624 106.086 381.194 166.632 380.64C245.982 379.915 309.806 325.982 309.206 260.178C308.662 194.373 243.792 141.585 164.455 142.338C143.445 142.537 123.522 146.463 105.596 153.349L105.696 153.303C105.696 153.303 97.493 127.355 54.0652 127.746Z" fill="url(#paint10_linear)"/>
<path d="M73.7772 226.334C75.3737 226.321 76.9465 226.721 78.3423 227.496C79.7382 228.271 80.9098 229.394 81.7429 230.756C82.5272 229.322 82.9192 227.706 82.8794 226.072C82.8396 224.438 82.3695 222.844 81.5163 221.449C80.6632 220.055 79.4574 218.91 78.0205 218.131C76.5837 217.352 74.9666 216.966 73.3327 217.011C71.6988 217.057 70.1057 217.532 68.7144 218.39C67.3231 219.248 66.1828 220.458 65.4085 221.898C64.6343 223.337 64.2535 224.955 64.3047 226.589C64.3558 228.223 64.8371 229.814 65.6999 231.203C66.488 229.743 67.6531 228.522 69.0737 227.665C70.4943 226.809 72.1185 226.349 73.7772 226.334Z" fill="#3E464F"/>
<path d="M206.07 171.843C205.377 173.588 204.056 175.009 202.367 175.828C200.678 176.646 198.744 176.803 196.946 176.265C176.782 170.642 155.438 170.841 135.382 176.837C133.592 177.404 131.654 177.281 129.95 176.491C128.246 175.701 126.899 174.301 126.175 172.569C124.78 168.983 127.096 164.77 131.393 163.487C153.968 156.746 177.99 156.529 200.685 162.859C205.009 164.059 207.381 168.23 206.07 171.843Z" fill="#B4597D"/>
<path d="M133.067 169.095C154.582 162.663 177.479 162.455 199.108 168.495C200.476 168.841 201.711 169.583 202.659 170.628C203.607 171.673 204.225 172.974 204.437 174.368C205.169 173.664 205.728 172.799 206.07 171.843C207.381 168.23 205.009 164.059 200.685 162.859C177.99 156.529 153.968 156.746 131.393 163.487C127.11 164.77 124.808 168.983 126.175 172.569C126.538 173.521 127.11 174.379 127.849 175.08C128.038 173.681 128.633 172.369 129.56 171.305C130.488 170.241 131.707 169.473 133.067 169.095Z" fill="#E16E9B"/>
<g style="mix-blend-mode:multiply">
<g style="mix-blend-mode:multiply">
<path d="M89.9177 272.831C93.503 272.831 93.4611 267.251 89.9177 267.251C86.3743 267.251 86.3882 272.831 89.9177 272.831Z" fill="#DADADA"/>
</g>
</g>
<g style="mix-blend-mode:multiply">
<g style="mix-blend-mode:multiply">
<path d="M68.6156 257.36C72.2148 257.36 72.159 251.78 68.6156 251.78C65.0722 251.78 65.0861 257.36 68.6156 257.36Z" fill="#DADADA"/>
</g>
</g>
<g style="mix-blend-mode:multiply">
<g style="mix-blend-mode:multiply">
<path d="M85.8304 252.198C89.4297 252.198 89.3739 246.618 85.8304 246.618C82.287 246.618 82.301 252.198 85.8304 252.198Z" fill="#DADADA"/>
</g>
</g>
<g style="mix-blend-mode:multiply">
<g style="mix-blend-mode:multiply">
<path d="M59.6034 246.59C59.9734 246.59 60.3282 246.443 60.5898 246.181C60.8514 245.92 60.9984 245.565 60.9984 245.195C60.9984 244.825 60.8514 244.47 60.5898 244.208C60.3282 243.947 59.9734 243.8 59.6034 243.8C59.2334 243.8 58.8785 243.947 58.6169 244.208C58.3553 244.47 58.2083 244.825 58.2083 245.195C58.2083 245.565 58.3553 245.92 58.6169 246.181C58.8785 246.443 59.2334 246.59 59.6034 246.59Z" fill="#DADADA"/>
</g>
</g>
<g style="mix-blend-mode:multiply">
<g style="mix-blend-mode:multiply">
<path d="M64.5279 266.874V267.418C64.5279 267.788 64.6749 268.143 64.9365 268.404C65.1981 268.666 65.553 268.813 65.9229 268.813C66.2929 268.813 66.6478 268.666 66.9094 268.404C67.171 268.143 67.318 267.788 67.318 267.418V266.86C67.318 266.49 67.171 266.135 66.9094 265.874C66.6478 265.612 66.2929 265.465 65.9229 265.465C65.553 265.465 65.1981 265.612 64.9365 265.874C64.6749 266.135 64.5279 266.49 64.5279 266.86V266.874Z" fill="#DADADA"/>
</g>
</g>
<g style="mix-blend-mode:multiply">
<g style="mix-blend-mode:multiply">
<path d="M77.8089 258.392V258.88C77.8089 259.25 77.9559 259.605 78.2175 259.867C78.4791 260.128 78.834 260.275 79.2039 260.275C79.5739 260.275 79.9288 260.128 80.1904 259.867C80.452 259.605 80.599 259.25 80.599 258.88V258.462C80.599 258.092 80.452 257.737 80.1904 257.475C79.9288 257.214 79.5739 257.067 79.2039 257.067C78.834 257.067 78.4791 257.214 78.2175 257.475C77.9559 257.737 77.8089 258.092 77.8089 258.462V258.88C77.8089 259.25 77.9559 259.605 78.2175 259.867C78.4791 260.128 78.834 260.275 79.2039 260.275C79.5739 260.275 79.9288 260.128 80.1904 259.867C80.452 259.605 80.599 259.25 80.599 258.88V258.462C80.599 258.092 80.452 257.737 80.1904 257.475C79.9288 257.214 79.5739 257.067 79.2039 257.067C78.834 257.067 78.4791 257.214 78.2175 257.475C77.9559 257.737 77.8089 258.092 77.8089 258.462V258.392Z" fill="#DADADA"/>
</g>
</g>
<g style="mix-blend-mode:multiply">
<g style="mix-blend-mode:multiply">
<path d="M72.9681 246.185C76.5674 246.185 76.5116 240.605 72.9681 240.605C69.4247 240.605 69.4387 246.185 72.9681 246.185Z" fill="#DADADA"/>
</g>
</g>
<g style="mix-blend-mode:multiply">
<g style="mix-blend-mode:multiply">
<path d="M79.2737 265.06H78.7157C77.9757 265.06 77.266 265.354 76.7428 265.878C76.2196 266.401 75.9256 267.11 75.9256 267.85C75.9256 268.59 76.2196 269.3 76.7428 269.823C77.266 270.347 77.9757 270.641 78.7157 270.641H79.2737C80.0137 270.641 80.7234 270.347 81.2466 269.823C81.7699 269.3 82.0638 268.59 82.0638 267.85C82.0638 267.11 81.7699 266.401 81.2466 265.878C80.7234 265.354 80.0137 265.06 79.2737 265.06Z" fill="#DADADA"/>
</g>
</g>
<g style="mix-blend-mode:multiply">
<g style="mix-blend-mode:multiply">
<path d="M84.0586 240.521C87.6439 240.521 87.6021 234.941 84.0586 234.941C80.5152 234.941 80.5152 240.521 84.0586 240.521Z" fill="#DADADA"/>
</g>
</g>
<g style="mix-blend-mode:multiply">
<g style="mix-blend-mode:multiply">
<path d="M54.7627 256.662H55.3207C55.6907 256.662 56.0455 256.515 56.3071 256.254C56.5688 255.992 56.7157 255.637 56.7157 255.267C56.7157 254.897 56.5688 254.542 56.3071 254.281C56.0455 254.019 55.6907 253.872 55.3207 253.872H54.7627C54.3927 253.872 54.0378 254.019 53.7762 254.281C53.5146 254.542 53.3676 254.897 53.3676 255.267C53.3676 255.637 53.5146 255.992 53.7762 256.254C54.0378 256.515 54.3927 256.662 54.7627 256.662Z" fill="#DADADA"/>
</g>
</g>
<g style="mix-blend-mode:multiply">
<g style="mix-blend-mode:multiply">
<path d="M94.8283 261.852C95.1983 261.852 95.5532 261.705 95.8148 261.443C96.0764 261.181 96.2234 260.827 96.2234 260.457C96.2234 260.087 96.0764 259.732 95.8148 259.47C95.5532 259.209 95.1983 259.062 94.8283 259.062C94.4583 259.062 94.1035 259.209 93.8419 259.47C93.5803 259.732 93.4333 260.087 93.4333 260.457C93.4333 260.827 93.5803 261.181 93.8419 261.443C94.1035 261.705 94.4583 261.852 94.8283 261.852Z" fill="#DADADA"/>
</g>
</g>
<g style="mix-blend-mode:multiply">
<g style="mix-blend-mode:multiply">
<path d="M95.2191 237.955C95.5891 237.955 95.9439 237.808 96.2055 237.546C96.4672 237.284 96.6141 236.93 96.6141 236.56C96.6141 236.19 96.4672 235.835 96.2055 235.573C95.9439 235.312 95.5891 235.165 95.2191 235.165C94.8491 235.165 94.4943 235.312 94.2326 235.573C93.971 235.835 93.824 236.19 93.824 236.56C93.824 236.93 93.971 237.284 94.2326 237.546C94.4943 237.808 94.8491 237.955 95.2191 237.955Z" fill="#DADADA"/>
</g>
</g>
<g style="mix-blend-mode:multiply">
<g style="mix-blend-mode:multiply">
<path d="M103.589 245.628C103.959 245.628 104.314 245.481 104.576 245.219C104.837 244.957 104.984 244.602 104.984 244.232C104.984 243.862 104.837 243.508 104.576 243.246C104.314 242.984 103.959 242.837 103.589 242.837C103.219 242.837 102.864 242.984 102.603 243.246C102.341 243.508 102.194 243.862 102.194 244.232C102.194 244.602 102.341 244.957 102.603 245.219C102.864 245.481 103.219 245.628 103.589 245.628Z" fill="#DADADA"/>
</g>
</g>
<g style="mix-blend-mode:multiply">
<g style="mix-blend-mode:multiply">
<path d="M54.7627 269.468C55.1327 269.468 55.4875 269.321 55.7491 269.06C56.0107 268.798 56.1577 268.443 56.1577 268.073C56.1577 267.703 56.0107 267.349 55.7491 267.087C55.4875 266.825 55.1327 266.678 54.7627 266.678C54.3927 266.678 54.0378 266.825 53.7762 267.087C53.5146 267.349 53.3676 267.703 53.3676 268.073C53.3676 268.443 53.5146 268.798 53.7762 269.06C54.0378 269.321 54.3927 269.468 54.7627 269.468Z" fill="#DADADA"/>
</g>
</g>
<g style="mix-blend-mode:multiply">
<g style="mix-blend-mode:multiply">
<path d="M69.9128 277.672C70.2828 277.672 70.6376 277.525 70.8993 277.263C71.1609 277.002 71.3079 276.647 71.3079 276.277C71.3079 275.907 71.1609 275.552 70.8993 275.29C70.6376 275.029 70.2828 274.882 69.9128 274.882C69.5428 274.882 69.188 275.029 68.9264 275.29C68.6647 275.552 68.5178 275.907 68.5178 276.277C68.5178 276.647 68.6647 277.002 68.9264 277.263C69.188 277.525 69.5428 277.672 69.9128 277.672Z" fill="#DADADA"/>
</g>
</g>
<g style="mix-blend-mode:multiply">
<g style="mix-blend-mode:multiply">
<path d="M85.2305 278.411V277.295C85.2305 276.925 85.0835 276.57 84.8219 276.309C84.5602 276.047 84.2054 275.9 83.8354 275.9C83.4654 275.9 83.1106 276.047 82.849 276.309C82.5873 276.57 82.4404 276.925 82.4404 277.295C82.4404 277.672 82.4404 278.034 82.4404 278.411C82.4404 278.781 82.5873 279.136 82.849 279.397C83.1106 279.659 83.4654 279.806 83.8354 279.806C84.2054 279.806 84.5602 279.659 84.8219 279.397C85.0835 279.136 85.2305 278.781 85.2305 278.411Z" fill="#DADADA"/>
</g>
</g>
<circle cx="164.711" cy="191.253" r="34.2781" fill="url(#paint11_linear)"/>
<circle cx="164.711" cy="191.253" r="27.5047" stroke="white" stroke-width="2"/>
<path d="M156.161 206.035V201.604H152.848V197.588H156.161V194.359H152.848V189.224H156.161V176.472H165.601C169.41 176.472 172.185 177.245 173.924 178.79C175.69 180.336 176.574 182.462 176.574 185.167C176.574 186.768 176.215 188.272 175.497 189.68C174.779 191.088 173.579 192.219 171.895 193.075C170.239 193.931 167.975 194.359 165.104 194.359H162.413V197.588H168.789V201.604H162.413V206.035H156.161ZM162.413 189.224H164.483C166.25 189.224 167.644 188.921 168.665 188.313C169.714 187.706 170.239 186.726 170.239 185.374C170.239 182.862 168.582 181.606 165.27 181.606H162.413V189.224Z" fill="white"/>
<path fill-rule="evenodd" clip-rule="evenodd" d="M202.367 175.828C204.056 175.009 205.377 173.588 206.07 171.843C206.828 169.752 206.354 167.474 204.981 165.693C239.111 170.422 263.057 181.489 263.057 194.388C263.057 211.588 220.473 225.531 167.943 225.531C115.413 225.531 72.8284 211.588 72.8284 194.388C72.8284 181.951 95.0927 171.216 127.283 166.225C125.833 168.057 125.341 170.425 126.175 172.569C126.899 174.302 128.246 175.701 129.95 176.491C131.654 177.281 133.592 177.404 135.382 176.837C155.438 170.841 176.782 170.642 196.946 176.265C198.744 176.803 200.678 176.646 202.367 175.828Z" fill="url(#paint12_linear)"/>
<defs>
<linearGradient id="paint0_linear" x1="365.791" y1="78.2142" x2="366.447" y2="122.835" gradientUnits="userSpaceOnUse">
<stop stop-color="#6FC7A1"/>
<stop offset="1" stop-color="#DBFBDF"/>
</linearGradient>
<linearGradient id="paint1_linear" x1="297.44" y1="0.975098" x2="297.44" y2="176.317" gradientUnits="userSpaceOnUse">
<stop stop-color="#DBFBDF"/>
<stop offset="1" stop-color="#6FC7A1"/>
</linearGradient>
<linearGradient id="paint2_linear" x1="297.44" y1="0.975098" x2="297.44" y2="176.317" gradientUnits="userSpaceOnUse">
<stop stop-color="#DBFBDF"/>
<stop offset="1" stop-color="#6FC7A1"/>
</linearGradient>
<linearGradient id="paint3_linear" x1="276.86" y1="-6.68335" x2="276.86" y2="200.317" gradientUnits="userSpaceOnUse">
<stop stop-color="#A4E4C8"/>
<stop offset="1" stop-color="#4FA77F"/>
</linearGradient>
<linearGradient id="paint4_linear" x1="320.208" y1="-6.68335" x2="320.208" y2="200.317" gradientUnits="userSpaceOnUse">
<stop stop-color="#A4E4C8"/>
<stop offset="1" stop-color="#4FA77F"/>
</linearGradient>
<linearGradient id="paint5_linear" x1="297.856" y1="-6.68335" x2="297.856" y2="176.317" gradientUnits="userSpaceOnUse">
<stop stop-color="#A4E4C8"/>
<stop offset="1" stop-color="#4FA77F"/>
</linearGradient>
<linearGradient id="paint6_linear" x1="297.915" y1="252.246" x2="297.915" y2="387.446" gradientUnits="userSpaceOnUse">
<stop stop-color="#00B8F0"/>
<stop offset="0.0001" stop-color="#00B8F0"/>
<stop offset="0.739583" stop-color="#B2EEFC"/>
</linearGradient>
<linearGradient id="paint7_linear" x1="306.706" y1="260.142" x2="342.976" y2="238.866" gradientUnits="userSpaceOnUse">
<stop stop-color="#FA9EC2"/>
<stop offset="1" stop-color="#FFDBEB"/>
</linearGradient>
<linearGradient id="paint8_linear" x1="104.566" y1="351.735" x2="104.566" y2="410.522" gradientUnits="userSpaceOnUse">
<stop stop-color="#FA9EC2"/>
<stop offset="1" stop-color="#FFDBEB"/>
</linearGradient>
<linearGradient id="paint9_linear" x1="226.019" y1="350.633" x2="226.019" y2="409.407" gradientUnits="userSpaceOnUse">
<stop stop-color="#FA9EC2"/>
<stop offset="1" stop-color="#FFDBEB"/>
</linearGradient>
<linearGradient id="paint10_linear" x1="154.783" y1="127.741" x2="154.783" y2="380.648" gradientUnits="userSpaceOnUse">
<stop stop-color="#FA9EC2"/>
<stop offset="1" stop-color="#FFDBEB"/>
</linearGradient>
<linearGradient id="paint11_linear" x1="164.711" y1="156.975" x2="164.711" y2="225.531" gradientUnits="userSpaceOnUse">
<stop stop-color="#FFD08A"/>
<stop offset="1" stop-color="#F2AA3D"/>
</linearGradient>
<linearGradient id="paint12_linear" x1="161.356" y1="140.317" x2="161.356" y2="381.317" gradientUnits="userSpaceOnUse">
<stop stop-color="#FA9EC2"/>
<stop offset="1" stop-color="#FFDBEB"/>
</linearGradient>
</defs>
</svg>
