<svg width="354" height="357" viewBox="0 0 354 357" fill="none" xmlns="http://www.w3.org/2000/svg">
<rect width="74.7336" height="36.9843" rx="3" transform="matrix(0.984869 0.172108 -0.137272 0.990371 266.253 153.302)" fill="url(#paint0_linear)"/>
<ellipse rx="12.1914" ry="12.2475" transform="matrix(0.984787 0.172732 -0.136778 0.990461 299.626 177.581)" fill="white"/>
<rect width="152.325" height="75.3831" rx="3" transform="matrix(0.984869 0.172109 -0.137271 0.990371 10.8605 113.455)" fill="url(#paint1_linear)"/>
<ellipse rx="24.849" ry="24.9634" transform="matrix(0.984787 0.172732 -0.136778 0.990461 78.8829 162.941)" fill="white"/>
<circle cx="208.356" cy="304.284" r="52.3418" fill="url(#paint2_linear)"/>
<circle cx="208.356" cy="304.284" r="42.526" stroke="white" stroke-width="2"/>
<path d="M195.3 326.855V320.09H190.242V313.957H195.3V309.026H190.242V301.186H195.3V281.713H209.715C215.532 281.713 219.768 282.893 222.423 285.253C225.121 287.614 226.47 290.859 226.47 294.99C226.47 297.435 225.922 299.732 224.826 301.881C223.73 304.031 221.896 305.759 219.325 307.066C216.796 308.372 213.34 309.026 208.956 309.026H204.847V313.957H214.583V320.09H204.847V326.855H195.3ZM204.847 301.186H208.008C210.706 301.186 212.834 300.722 214.394 299.795C215.995 298.868 216.796 297.371 216.796 295.306C216.796 291.47 214.267 289.553 209.209 289.553H204.847V301.186Z" fill="white"/>
<circle cx="86.0652" cy="234.78" r="2.75146" fill="#FFDB5B"/>
<circle cx="277.604" cy="87.8784" r="2.75146" fill="#FFDB5B"/>
<circle cx="129.227" cy="268.481" r="1.83431" fill="#FFDB5B"/>
<circle cx="175.672" cy="207.75" r="1.83431" fill="#FFDB5B"/>
<circle cx="320.645" cy="58.1038" r="32.5261" fill="#DDF2F9"/>
<path d="M320.645 41.4995C329.421 41.4995 337.291 43.4826 342.915 46.6128C348.589 49.7709 351.671 53.895 351.671 58.1037C351.671 62.3123 348.589 66.4364 342.915 69.5946C337.291 72.7248 329.421 74.7078 320.645 74.7078C311.869 74.7078 303.999 72.7248 298.375 69.5946C292.701 66.4364 289.619 62.3123 289.619 58.1037C289.619 53.895 292.701 49.7709 298.375 46.6128C303.999 43.4826 311.869 41.4995 320.645 41.4995Z" stroke="white" stroke-width="3"/>
<path d="M304.041 58.1038C304.041 66.8793 306.024 74.75 309.154 80.3737C312.312 86.0476 316.436 89.1299 320.645 89.1299C324.854 89.1299 328.978 86.0476 332.136 80.3737C335.266 74.75 337.249 66.8793 337.249 58.1038C337.249 49.3282 335.266 41.4576 332.136 35.8338C328.978 30.1599 324.854 27.0776 320.645 27.0776C316.436 27.0776 312.312 30.1599 309.154 35.8338C306.024 41.4576 304.041 49.3282 304.041 58.1038Z" stroke="white" stroke-width="3"/>
<circle cx="151.356" cy="90.6299" r="90" fill="url(#paint3_linear)"/>
<circle cx="151.356" cy="90.6299" r="73.8416" stroke="white" stroke-width="2"/>
<path d="M128.907 129.44V117.808H120.21V107.263H128.907V98.7834H120.21V85.303H128.907V51.8196H153.693C163.695 51.8196 170.978 53.8489 175.544 57.9075C180.183 61.9661 182.502 67.5467 182.502 74.6492C182.502 78.8528 181.56 82.8026 179.675 86.4989C177.791 90.1951 174.638 93.1666 170.217 95.4133C165.869 97.66 159.926 98.7834 152.389 98.7834H145.322V107.263H162.064V117.808H145.322V129.44H128.907ZM145.322 85.303H150.758C155.396 85.303 159.056 84.5058 161.738 82.9114C164.492 81.3169 165.869 78.744 165.869 75.1928C165.869 68.5975 161.52 65.2999 152.823 65.2999H145.322V85.303Z" fill="white"/>
<defs>
<linearGradient id="paint0_linear" x1="37.3668" y1="0" x2="37.3668" y2="36.9843" gradientUnits="userSpaceOnUse">
<stop stop-color="#6FC7A1"/>
<stop offset="1" stop-color="#DBFBDF"/>
</linearGradient>
<linearGradient id="paint1_linear" x1="76.1626" y1="0" x2="76.1626" y2="75.3831" gradientUnits="userSpaceOnUse">
<stop stop-color="#6FC7A1"/>
<stop offset="1" stop-color="#DBFBDF"/>
</linearGradient>
<linearGradient id="paint2_linear" x1="208.356" y1="251.942" x2="208.356" y2="356.626" gradientUnits="userSpaceOnUse">
<stop stop-color="#FFD08A"/>
<stop offset="1" stop-color="#F2AA3D"/>
</linearGradient>
<linearGradient id="paint3_linear" x1="151.356" y1="0.629883" x2="151.356" y2="180.63" gradientUnits="userSpaceOnUse">
<stop stop-color="#FFD08A"/>
<stop offset="1" stop-color="#F2AA3D"/>
</linearGradient>
</defs>
</svg>
