<svg width="49" height="61" viewBox="0 0 49 61" fill="none" xmlns="http://www.w3.org/2000/svg">
<path d="M48.6976 27.0625L29.8501 3.29017C29.4907 2.83714 29.0886 2.44275 28.655 2.10706C27.4508 1.17439 26.003 0.695143 24.5485 0.669316C24.5071 0.668581 24.4657 0.668213 24.4243 0.668213C22.4046 0.668199 20.3848 1.54225 18.9988 3.29035L0.150757 27.0623L24.4242 51.9621L48.6976 27.0625Z" fill="url(#paint0_linear)"/>
<path d="M5.69391 7.41138H42.2886V52.9106H5.69391V7.41138Z" fill="white"/>
<path d="M24.4242 47.6779L0.150757 27.0625V53.7593C0.150757 57.3791 3.08516 60.3135 6.70494 60.3135H42.1436C45.7633 60.3135 48.6977 57.3791 48.6977 53.7593V27.0625L24.4242 47.6779Z" fill="url(#paint1_linear)"/>
<path d="M31.7392 27.5717C31.6192 27.8725 31.3157 28.5018 30.651 28.8997C30.425 29.035 30.0473 29.1829 29.5684 29.1829C29.3108 29.1829 29.1114 29.0214 29.0156 28.9249C28.7862 28.6944 28.6502 28.3545 28.6517 28.0158L28.665 25.3226C28.667 25.251 28.6694 25.1795 28.6694 25.1074C28.6694 25.062 28.6676 25.0174 28.6668 24.9725L28.6966 18.9329L26.5309 18.9222L26.5239 20.3553C25.8243 19.8565 24.9869 19.5764 24.0611 19.5764C21.6529 19.5764 19.162 21.6556 19.162 25.1354C19.162 28.3076 21.3163 30.8882 23.9643 30.8882C25.0824 30.8882 26.0969 30.431 26.8959 29.6587C27.051 29.9498 27.2471 30.2184 27.4804 30.4528C28.0554 31.0306 28.797 31.3488 29.5684 31.3488C31.7796 31.3488 33.1792 29.8111 33.7516 28.3721C34.6323 26.1583 34.7904 24.2916 34.264 22.3199C34.2609 22.3088 34.2578 22.2976 34.2544 22.2864C33.4586 19.6496 31.6783 17.4907 29.2411 16.2073C26.8044 14.924 24.0161 14.6774 21.3897 15.5137C18.9008 16.3057 16.8304 18.0138 15.5596 20.3227C14.2883 22.6324 13.954 25.2952 14.6182 27.8209C15.7646 32.1796 19.7063 35.3108 24.2039 35.4351L25.2864 35.465L25.3461 33.3001L24.2637 33.2702C20.7212 33.1722 17.6161 30.7049 16.7126 27.27C16.1905 25.2841 16.4547 23.1877 17.4567 21.3669C18.4587 19.5464 20.0888 18.2005 22.0465 17.5773C24.1156 16.9188 26.3125 17.1125 28.2317 18.1234C29.5365 18.8106 30.3351 19.6864 30.69 20.1165C31.5693 21.1824 31.9791 22.2436 32.1745 22.8908C32.3278 23.3742 32.5204 24.1923 32.4374 25.2084C32.3485 26.2953 31.9845 27.1145 31.7392 27.5717ZM23.9644 28.7227C22.6965 28.7227 21.3279 27.3512 21.3279 25.1355C21.3279 23.0115 22.7177 21.7423 24.0613 21.7423C25.4775 21.7423 26.471 23.0856 26.5009 25.0188L26.4995 25.3115C26.425 27.2103 25.3167 28.7227 23.9644 28.7227Z" fill="url(#paint2_linear)"/>
<path d="M31.7401 27.5722C31.6198 27.8735 31.3159 28.5027 30.6507 28.9006C30.4245 29.0359 30.047 29.1829 29.5684 29.1829C29.3114 29.1829 29.1109 29.0217 29.0156 28.9249C28.7862 28.6944 28.6502 28.3545 28.6517 28.0158L28.6966 18.9329L26.5309 18.9222L26.5236 20.356C25.9172 19.9229 25.2054 19.6543 24.4243 19.5908V21.7724C25.6443 21.9818 26.4745 23.2538 26.5005 25.0181L26.4995 25.3115C26.4345 26.9892 25.5606 28.3663 24.4243 28.6623V30.8612C25.3599 30.7558 26.2087 30.3243 26.8959 29.6587C27.0504 29.9503 27.2465 30.2189 27.4804 30.4528C28.0554 31.0306 28.797 31.3488 29.5684 31.3488C31.7803 31.3488 33.1798 29.8116 33.7516 28.3721C34.6323 26.1587 34.791 24.2922 34.264 22.3199C34.2611 22.3084 34.2581 22.2979 34.2538 22.2864C33.4582 19.65 31.678 17.4901 29.2409 16.2065C27.7306 15.411 26.0832 15.0139 24.4243 15.0269V17.1926C25.7367 17.1811 27.0376 17.4944 28.2316 18.1224C29.5511 18.8165 30.3587 19.7095 30.719 20.1513C31.5784 21.2051 31.9813 22.2497 32.1747 22.8899C32.3191 23.4312 32.4816 24.3072 32.3653 25.3766C32.2607 26.3376 31.9708 27.0897 31.7401 27.5722ZM24.4243 35.441L25.2863 35.4641L25.3469 33.2998L24.4243 33.2738V35.441Z" fill="url(#paint3_linear)"/>
<defs>
<linearGradient id="paint0_linear" x1="24.4242" y1="0.668213" x2="24.4242" y2="51.9621" gradientUnits="userSpaceOnUse">
<stop stop-color="#00B8F0"/>
<stop offset="0.0001" stop-color="#00B8F0"/>
<stop offset="0.739583" stop-color="#B2EEFC"/>
</linearGradient>
<linearGradient id="paint1_linear" x1="24.4242" y1="27.0625" x2="24.4242" y2="60.3135" gradientUnits="userSpaceOnUse">
<stop stop-color="#1792C7"/>
<stop offset="1" stop-color="#00B8F0"/>
</linearGradient>
<linearGradient id="paint2_linear" x1="24.4251" y1="15.0266" x2="24.4251" y2="35.465" gradientUnits="userSpaceOnUse">
<stop stop-color="#F86CA2"/>
<stop offset="1" stop-color="#FA9EC2"/>
</linearGradient>
<linearGradient id="paint3_linear" x1="24.4251" y1="15.0266" x2="24.4251" y2="35.465" gradientUnits="userSpaceOnUse">
<stop stop-color="#F86CA2"/>
<stop offset="1" stop-color="#FA9EC2"/>
</linearGradient>
</defs>
</svg>
